<svg xmlns="http://www.w3.org/2000/svg" version="1.1" xmlns:xlink="http://www.w3.org/1999/xlink" xmlns:svgjs="http://svgjs.com/svgjs" width="1440" height="560" preserveAspectRatio="none" viewBox="0 0 1440 560"><g mask="url(&quot;#SvgjsMask1031&quot;)" fill="none"><rect width="1440" height="560" x="0" y="0" fill="#0e2a47"></rect><path d="M0 364.11L10 391.24L20 402.29L30 437.98L40 400.6L50 408.75L60 405.66L70 412.32L80 438.99L90 378.06L100 431.97L110 407.84L120 396.72L130 358.59L140 403.24L150 401.95L160 450.83L170 421.21L180 401.15L190 399.66L200 402.53L210 395.02L220 332.06L230 326.04L240 316.39L250 284.1L260 273.84L270 318.92L280 352.13L290 375.92L300 417.78L310 411.35L320 360.27L330 395.85L340 386.46L350 442.99L360 391.84L370 450.76L380 457.55L390 418.38L400 383.88L410 351.28L420 287.77L430 272.1L440 240.63L450 292.1L460 342.55L470 343.92L480 338.44L490 366.89L500 357.85L510 427.26L520 496.02L530 550.49L540 544L550 504.46L560 499.43L570 485.08L580 451.84L590 391.37L600 426.49L610 375.17L620 417.82L630 373.38L640 393.88L650 404.65L660 432.4L670 417.56L680 433.98L690 470.12L700 429.59L710 394.83L720 407.72L730 438.48L740 466.05L750 498.32L760 523.32L770 498.49L780 445.72L790 376.75L800 401.83L810 447.5L820 449.74L830 512.21L840 543.78L850 554.97L860 509.37L870 511.39L880 539.59L890 483.56L900 541.12L910 526.23L920 483.86L930 515.74L940 449.47L950 411.97L960 424.15L970 435.06L980 462.77L990 407.11L1000 348.62L1010 301.79L1020 337.02L1030 321.87L1040 317.97L1050 358.72L1060 328.97L1070 276.95L1080 263.16L1090 279.95L1100 342.83L1110 367.11L1120 408.64L1130 359.89L1140 290.25L1150 242.26L1160 192.68L1170 237.48L1180 273.95L1190 299.62L1200 297.96L1210 366.04L1220 384.23L1230 329.23L1240 291.22L1250 266.99L1260 209.48L1270 252.03L1280 247.2L1290 288.5L1300 306.23L1310 371.81L1320 317.71L1330 310.1L1340 243.37L1350 250.84L1360 195.65L1370 189.37L1380 170.03L1390 194.35L1400 168.73L1410 137.84L1420 160.36L1430 173.3L1440 126.17" stroke="rgba(15, 157, 88, 1)" stroke-width="2"></path><path d="M0 364.11L10 391.24L20 402.29L30 437.98L40 400.6L50 408.75L60 405.66L70 412.32L80 438.99L90 378.06L100 431.97L110 407.84L120 396.72L130 358.59L140 403.24L150 401.95L160 450.83L170 421.21L180 401.15L190 399.66L200 402.53L210 395.02L220 332.06L230 326.04L240 316.39L250 284.1L260 273.84L270 318.92L280 352.13L290 375.92L300 417.78L310 411.35L320 360.27L330 395.85L340 386.46L350 442.99L360 391.84L370 450.76L380 457.55L390 418.38L400 383.88L410 351.28L420 287.77L430 272.1L440 240.63L450 292.1L460 342.55L470 343.92L480 338.44L490 366.89L500 357.85L510 427.26L520 496.02L530 550.49L540 544L550 504.46L560 499.43L570 485.08L580 451.84L590 391.37L600 426.49L610 375.17L620 417.82L630 373.38L640 393.88L650 404.65L660 432.4L670 417.56L680 433.98L690 470.12L700 429.59L710 394.83L720 407.72L730 438.48L740 466.05L750 498.32L760 523.32L770 498.49L780 445.72L790 376.75L800 401.83L810 447.5L820 449.74L830 512.21L840 543.78L850 554.97L860 509.37L870 511.39L880 539.59L890 483.56L900 541.12L910 526.23L920 483.86L930 515.74L940 449.47L950 411.97L960 424.15L970 435.06L980 462.77L990 407.11L1000 348.62L1010 301.79L1020 337.02L1030 321.87L1040 317.97L1050 358.72L1060 328.97L1070 276.95L1080 263.16L1090 279.95L1100 342.83L1110 367.11L1120 408.64L1130 359.89L1140 290.25L1150 242.26L1160 192.68L1170 237.48L1180 273.95L1190 299.62L1200 297.96L1210 366.04L1220 384.23L1230 329.23L1240 291.22L1250 266.99L1260 209.48L1270 252.03L1280 247.2L1290 288.5L1300 306.23L1310 371.81L1320 317.71L1330 310.1L1340 243.37L1350 250.84L1360 195.65L1370 189.37L1380 170.03L1390 194.35L1400 168.73L1410 137.84L1420 160.36L1430 173.3L1440 126.17L1440 560L0 560z" fill="url(#SvgjsLinearGradient1032)"></path></g><defs><mask id="SvgjsMask1031"><rect width="1440" height="560" fill="#ffffff"></rect></mask><linearGradient x1="50%" y1="0%" x2="50%" y2="100%" id="SvgjsLinearGradient1032"><stop stop-opacity="0.65" stop-color="rgba(15, 157, 88, 1)" offset="0"></stop><stop stop-opacity="0" stop-color="#55efa4" offset="0.8"></stop></linearGradient></defs></svg>